<?xml version="1.0" encoding="utf-8"?>
<!-- Generator: Adobe Illustrator 16.0.0, SVG Export Plug-In . SVG Version: 6.00 Build 0)  -->
<!DOCTYPE svg PUBLIC "-//W3C//DTD SVG 1.1//EN" "http://www.w3.org/Graphics/SVG/1.1/DTD/svg11.dtd">
<svg version="1.1" id="binary" xmlns="http://www.w3.org/2000/svg" xmlns:xlink="http://www.w3.org/1999/xlink" x="0px" y="0px"
	 width="100%" viewBox="0 0 595.56 255.12" enable-background="new 0 0 571.46 289.6" xml:space="preserve">
<path fill="#62B296" d="M163.819,34.995c0,0.551-0.293,0.998-0.655,0.998h-11.792c-0.361,0-0.655-0.447-0.655-0.998v-0.006
	c0-0.551,0.293-0.998,0.655-0.998h11.792c0.361,0,0.655,0.446,0.655,0.998V34.995z"/>
<path fill="#62B296" d="M157.451,41.542c-0.55,0-0.998-0.293-0.998-0.655V29.096c0-0.361,0.447-0.655,0.998-0.655h0.006
	c0.551,0,0.998,0.293,0.998,0.655v11.792c0,0.361-0.446,0.655-0.998,0.655H157.451z"/>
<path fill="#62B296" transform="matrix(1 0 0 1 0 25)" d="M49.245,108.211c0,0,4.256-2.431,6.684,0c2.43,2.429-6.871-11.961-6.871-11.961"/>
<rect x="63.724" y="194.958" fill="none" stroke="#62B296" stroke-miterlimit="10" width="470.55" height="28.346"/>
<rect x="63.724" y="154.855" fill="none" stroke="#62B296" stroke-miterlimit="10" width="470.55" height="28.347"/>
<rect x="63.702" y="114.791" fill="none" stroke="#62B296" stroke-miterlimit="10" width="470.551" height="28.347"/>
<path fill="none" stroke="#62B296" stroke-miterlimit="10" d="M515.239,82.221"/>
<path fill="none" stroke="#62B296" stroke-miterlimit="10" d="M568.577,240.376c0,6.627-5.371,12-12,12H41.997
	c-6.628,0-12-5.373-12-12V94.293c0-6.627,5.372-12,12-12h514.581c6.629,0,12,5.373,12,12V240.376z"/>
<circle id="circ-0" data-id="0" class="bincirc" fill="#FFF" stroke="#62B296" stroke-width="1.054" stroke-miterlimit="10" cx="85.606" cy="129.077" r="8.965"/>
<circle id="circ-1" data-id="1" class="bincirc" fill="#62B296" stroke="#62B296" stroke-width="1.054" stroke-miterlimit="10" cx="132.602" cy="128.806" r="8.964"/>
<circle id="circ-2" data-id="2" class="bincirc" fill="#62B296" stroke="#62B296" stroke-width="1.054" stroke-miterlimit="10" cx="180.142" cy="129.349" r="8.965"/>
<circle id="circ-3" data-id="3" class="bincirc" fill="#FFF" stroke="#62B296" stroke-width="1.054" stroke-miterlimit="10" cx="227.138" cy="129.078" r="8.965"/>
<circle id="circ-4" data-id="4" class="bincirc" fill="#FFF" stroke="#62B296" stroke-width="1.054" stroke-miterlimit="10" cx="274.406" cy="129.077" r="8.965"/>
<circle fill="none" stroke="#62B296" stroke-width="1.054" stroke-miterlimit="10" cx="321.401" cy="128.806" r="8.965"/>
<circle fill="none" stroke="#62B296" stroke-width="1.054" stroke-miterlimit="10" cx="368.941" cy="129.349" r="8.964"/>
<circle fill="none" stroke="#62B296" stroke-width="1.054" stroke-miterlimit="10" cx="415.938" cy="129.078" r="8.964"/>
<circle fill="none" stroke="#62B296" stroke-width="1.054" stroke-miterlimit="10" cx="463.236" cy="129.077" r="8.964"/>
<circle fill="none" stroke="#62B296" stroke-width="1.054" stroke-miterlimit="10" cx="510.231" cy="128.806" r="8.965"/>
<circle fill="none" stroke="#62B296" stroke-width="1.054" stroke-miterlimit="10" cx="85.606" cy="169.802" r="8.965"/>
<circle fill="none" stroke="#62B296" stroke-width="1.054" stroke-miterlimit="10" cx="132.602" cy="169.53" r="8.964"/>
<circle fill="none" stroke="#62B296" stroke-width="1.054" stroke-miterlimit="10" cx="180.142" cy="170.073" r="8.965"/>
<circle fill="none" stroke="#62B296" stroke-width="1.054" stroke-miterlimit="10" cx="227.138" cy="169.803" r="8.965"/>
<circle fill="none" stroke="#62B296" stroke-width="1.054" stroke-miterlimit="10" cx="274.406" cy="169.802" r="8.965"/>
<circle fill="none" stroke="#62B296" stroke-width="1.054" stroke-miterlimit="10" cx="321.401" cy="169.53" r="8.965"/>
<circle fill="none" stroke="#62B296" stroke-width="1.054" stroke-miterlimit="10" cx="368.941" cy="170.073" r="8.964"/>
<circle fill="none" stroke="#62B296" stroke-width="1.054" stroke-miterlimit="10" cx="415.938" cy="169.803" r="8.964"/>
<circle fill="#62B296" stroke="#62B296" stroke-width="1.054" stroke-miterlimit="10" cx="463.236" cy="169.802" r="8.964"/>
<circle fill="#62B296" stroke="#62B296" stroke-width="1.054" stroke-miterlimit="10" cx="510.231" cy="169.53" r="8.965"/>
<circle fill="none" stroke="#62B296" stroke-width="1.054" stroke-miterlimit="10" cx="85.606" cy="208.462" r="8.965"/>
<circle fill="none" stroke="#62B296" stroke-width="1.054" stroke-miterlimit="10" cx="132.602" cy="208.19" r="8.964"/>
<circle fill="none" stroke="#62B296" stroke-width="1.054" stroke-miterlimit="10" cx="180.142" cy="208.733" r="8.965"/>
<circle fill="none" stroke="#62B296" stroke-width="1.054" stroke-miterlimit="10" cx="227.138" cy="208.463" r="8.965"/>
<circle fill="none" stroke="#62B296" stroke-width="1.054" stroke-miterlimit="10" cx="274.406" cy="208.462" r="8.965"/>
<circle fill="none" stroke="#62B296" stroke-width="1.054" stroke-miterlimit="10" cx="321.401" cy="208.19" r="8.965"/>
<circle fill="none" stroke="#62B296" stroke-width="1.054" stroke-miterlimit="10" cx="368.941" cy="208.733" r="8.964"/>
<circle fill="#62B296" stroke="#62B296" stroke-width="1.054" stroke-miterlimit="10" cx="415.938" cy="208.463" r="8.964"/>
<circle fill="none" stroke="#62B296" stroke-width="1.054" stroke-miterlimit="10" cx="463.236" cy="208.462" r="8.964"/>
<circle fill="none" stroke="#62B296" stroke-width="1.054" stroke-miterlimit="10" cx="510.231" cy="208.19" r="8.965"/>
<line fill="none" stroke="#62B296" stroke-miterlimit="10" x1="316.167" y1="58.046" x2="290.134" y2="280.497"/>
<path fill="#62B296" transform="matrix(1 0 0 1 0 25)" d="M49.243,113.56c0,1.616-1.311,2.927-2.928,2.927H4.125c-1.616,0-2.928-1.311-2.928-2.927V93.129
	c0-1.616,1.312-2.928,2.928-2.928h42.188c1.617,0,2.928,1.312,2.928,2.928V113.56z"/>
	<path fill="#62B296" d="M546.777,200.235c0,0-4.256,2.433-6.685,0c-2.429-2.43,6.871,11.962,6.871,11.962"/>
	<path fill="#62B296" d="M593.865,177.343c0,1.617-1.311,2.929-2.929,2.929h-42.188c-1.616,0-2.928-1.312-2.928-2.929v-20.431
		c0-1.615,1.312-2.927,2.928-2.927h42.188c1.618,0,2.929,1.312,2.929,2.927V152.343z"/>
	<path fill="#62B296" d="M546.777,160.309c0,0-4.256,2.434-6.685,0c-2.429-2.428,6.871,11.961,6.871,11.961"/>
	<path fill="#62B296" d="M593.865,217.269c0,1.617-1.311,2.929-2.929,2.929h-42.188c-1.616,0-2.928-1.312-2.928-2.929v-20.43
		c0-1.616,1.312-2.928,2.928-2.928h42.188c1.618,0,2.929,1.312,2.929,2.928V192.269z"/>
<text id="bin-sol" transform="matrix(1 0 0 1 7.2476 133.6313)" fill="#FFFFFF" font-size="16.7422">6 =</text>
<text transform="matrix(1 0 0 1 560.1328 171.8867)" fill="#FFFFFF" font-size="16.7422">= 3</text>
<text transform="matrix(1 0 0 1 560.1328 212.2402)" fill="#FFFFFF" font-size="16.7422">= 4</text>
<path fill="#62B296" d="M116.912,34.995c0,0.551-0.293,0.998-0.655,0.998h-11.792c-0.361,0-0.655-0.447-0.655-0.998v-0.006
	c0-0.551,0.293-0.998,0.655-0.998h11.792c0.361,0,0.655,0.446,0.655,0.998V34.995z"/>
	<path fill="#62B296" d="M110.544,41.542c-0.55,0-0.998-0.293-0.998-0.655V29.096c0-0.361,0.447-0.655,0.998-0.655h0.006
		c0.551,0,0.998,0.293,0.998,0.655v11.792c0,0.361-0.446,0.655-0.998,0.655H110.544z"/>
<line id="line-0" fill="none" stroke="#62B296" stroke-width="1.3548" stroke-miterlimit="10" x1="85.432" y1="120.554" x2="85.432" y2="51.482" style="display: none;"/>
<line id="line-1" fill="none" stroke="#62B296" stroke-width="1.3548" stroke-miterlimit="10" x1="132.309" y1="120.554" x2="131.309" y2="51.482"/>
<line id="line-2" fill="none" stroke="#62B296" stroke-width="1.3548" stroke-miterlimit="10" x1="179.646" y1="120.554" x2="179.646" y2="51.482"/>
<line id="line-3" fill="none" stroke="#62B296" stroke-width="1.3548" stroke-miterlimit="10" x1="227.375" y1="120.554" x2="227.375" y2="51.482" style="display: none;"/>
<line id="line-4" fill="none" stroke="#62B296" stroke-width="1.3548" stroke-miterlimit="10" x1="274.252" y1="120.554" x2="274.252" y2="51.482" style="display: none;"/>
<path fill="#62B296" d="M258.573,34.995c0,0.551-0.293,0.998-0.655,0.998h-11.792c-0.361,0-0.655-0.447-0.655-0.998v-0.006
	c0-0.551,0.293-0.998,0.655-0.998h11.792c0.361,0,0.655,0.446,0.655,0.998V34.995z"/>
<path fill="#62B296" d="M252.205,41.542c-0.55,0-0.998-0.293-0.998-0.655V29.096c0-0.361,0.447-0.655,0.998-0.655h0.006
	c0.551,0,0.998,0.293,0.998,0.655v11.792c0,0.361-0.446,0.655-0.998,0.655H252.205z"/>
<path fill="#62B296" d="M210.209,34.995c0,0.551-0.293,0.998-0.655,0.998h-11.792c-0.361,0-0.655-0.447-0.655-0.998v-0.006
	c0-0.551,0.293-0.998,0.655-0.998h11.792c0.361,0,0.655,0.446,0.655,0.998V34.995z"/>
<path fill="#62B296" d="M203.842,41.542c-0.55,0-0.998-0.293-0.998-0.655V29.096c0-0.361,0.447-0.655,0.998-0.655h0.006
	c0.551,0,0.998,0.293,0.998,0.655v11.792c0,0.361-0.446,0.655-0.998,0.655H203.842z"/>
<text id="bin-0" transform="matrix(1 0 0 1 81.606 41.6943)" font-size="16.7422">0</text>
<text id="bin-1" transform="matrix(1 0 0 1 126.602 41.1787)" font-size="16.7422">2</text>
<text id="bin-2" transform="matrix(1 0 0 1 175.142 41.6943)" font-size="16.7422">4</text>
<text id="bin-3" transform="matrix(1 0 0 1 222.138 41.6943)" font-size="16.7422">0</text>
<text id="bin-4" transform="matrix(1 0 0 1 268.406 41.6943)" font-size="16.7422">0</text>
</svg>
