<?xml version="1.0" encoding="utf-8"?>
<!-- Generator: Adobe Illustrator 16.0.0, SVG Export Plug-In . SVG Version: 6.00 Build 0)  -->
<!DOCTYPE svg PUBLIC "-//W3C//DTD SVG 1.1//EN" "http://www.w3.org/Graphics/SVG/1.1/DTD/svg11.dtd">
<svg version="1.1" id="Layer_1" xmlns="http://www.w3.org/2000/svg" xmlns:xlink="http://www.w3.org/1999/xlink" x="0px" y="0px"
	 width="400px" height="429px" viewBox="0 0 400 429" enable-background="new 0 0 400 429" xml:space="preserve">
<g>
	<path fill="#62B195" d="M399.514,344.128c0,28.614-23.197,51.815-51.803,51.815H51.309c-28.606,0-51.795-23.201-51.795-51.815
		V51.226c0-28.615,23.189-51.815,51.795-51.815h296.402c28.605,0,51.803,23.201,51.803,51.815V344.128z"/>
	<g>
		<polygon fill="#FFFFFF" stroke="#FFFFFF" stroke-width="18.6941" stroke-linejoin="round" stroke-miterlimit="10" points="
			311.202,54.076 359.926,66.486 329.396,186.372 280.688,173.962 		"/>
		<polygon fill="#FFFFFF" stroke="#FFFFFF" stroke-width="18.6941" stroke-linejoin="round" stroke-miterlimit="10" points="
			202.459,188.716 251.182,201.13 220.652,321.013 171.938,308.606 		"/>
		<polygon fill="#FFFFFF" stroke="#FFFFFF" stroke-width="18.6941" stroke-linejoin="round" stroke-miterlimit="10" points="
			303.015,214.333 351.723,226.742 321.224,346.625 272.5,334.219 		"/>
		<g>
			<polygon fill="#FFFFFF" stroke="#FFFFFF" stroke-width="18.6941" stroke-linejoin="round" stroke-miterlimit="10" points="
				230.508,35.379 279.217,47.793 248.718,167.675 199.987,155.265 			"/>
			
				<rect x="169.836" y="66.237" transform="matrix(0.2468 -0.9691 0.9691 0.2468 22.7468 285.4202)" fill="#FFFFFF" stroke="#FFFFFF" stroke-width="18.6941" stroke-linejoin="round" stroke-miterlimit="10" width="50.288" height="123.681"/>
			<polygon fill="#FFFFFF" stroke="#FFFFFF" stroke-width="18.6941" stroke-linejoin="round" stroke-miterlimit="10" points="
				139.237,90.9 187.96,103.311 157.432,223.192 108.716,210.786 			"/>
			<polygon fill="#FFFFFF" stroke="#FFFFFF" stroke-width="18.6941" stroke-linejoin="round" stroke-miterlimit="10" points="
				169.826,174.497 157.424,223.226 37.577,192.706 49.987,143.968 			"/>
		</g>
		<polygon fill="#FFFFFF" stroke="#FFFFFF" stroke-width="14.3641" stroke-linejoin="round" stroke-miterlimit="10" points="
			175.107,312.443 187.517,263.715 258.272,281.737 245.878,330.466 		"/>
	</g>
	<path fill="#62B195" d="M269.586,393.97c0,0,11.794,20.67,0,32.473c-11.809,11.808,58.083-33.384,58.083-33.384"/>
	<g opacity="0.15">
		<g>
			<polyline fill="#62B195" points="315.814,51.377 355.072,61.843 362.284,77.942 			"/>
			<polyline fill="#62B195" points="349.318,126.595 362.284,77.942 354.848,61.784 			"/>
		</g>
		<path fill="#62B195" d="M355.193,61.869c0,0,10.696,3.466,7.451,15.201c-3.26,11.735-9.45-5.912-9.45-5.912L355.193,61.869z"/>
	</g>
	<g opacity="0.15">
		<g>
			<polyline fill="#62B195" points="233.363,33.595 272.621,44.062 279.832,60.165 			"/>
			<polyline fill="#62B195" points="266.866,108.817 279.832,60.165 272.381,44.002 			"/>
		</g>
		<path fill="#62B195" d="M272.726,44.091c0,0,10.712,3.466,7.452,15.197c-3.245,11.739-9.45-5.912-9.45-5.912L272.726,44.091z"/>
	</g>
	<g opacity="0.15">
		<g>
			<polyline fill="#62B195" points="307.191,212.578 346.434,223.045 353.646,239.148 			"/>
			<polyline fill="#62B195" points="340.68,287.801 353.646,239.148 346.209,222.986 			"/>
		</g>
		<path fill="#62B195" d="M346.554,223.074c0,0,10.712,3.467,7.452,15.197c-3.245,11.739-9.45-5.912-9.45-5.912L346.554,223.074z"/>
	</g>
	<g>
		<g>
			<polyline fill="#5BA68C" points="195.652,339.051 156.41,328.585 149.19,312.477 			"/>
			<polyline fill="#5BA68C" points="162.156,263.825 149.19,312.477 156.628,328.644 			"/>
		</g>
		<path fill="#5BA68C" d="M156.29,328.552c0,0-10.705-3.463-7.452-15.197c3.245-11.739,9.442,5.912,9.442,5.912L156.29,328.552z"/>
	</g>
	<g>
		<g>
			<polyline fill="#5BA68C" points="61.3,223.563 22.05,213.097 14.831,196.994 			"/>
			<polyline fill="#5BA68C" points="27.797,148.341 14.831,196.994 22.275,213.156 			"/>
		</g>
		<path fill="#5BA68C" d="M21.938,213.067c0,0-10.712-3.461-7.46-15.201c3.253-11.735,9.45,5.912,9.45,5.912L21.938,213.067z"/>
	</g>
	<g opacity="0.15">
		<g>
			<polyline fill="#62B195" points="205.749,185.95 244.991,196.416 252.218,212.523 			"/>
			<polyline fill="#62B195" points="239.252,261.177 252.218,212.523 244.781,196.357 			"/>
		</g>
		<path fill="#62B195" d="M245.111,196.45c0,0,10.713,3.462,7.452,15.197c-3.245,11.74-9.435-5.912-9.435-5.912L245.111,196.45z"/>
	</g>
	<g opacity="0.15">
		<g>
			<polyline fill="#62B195" points="237.089,275.674 255.809,280.666 259.249,288.341 			"/>
			<polyline fill="#62B195" points="253.06,311.55 259.249,288.341 255.688,280.633 			"/>
		</g>
		<path fill="#62B195" d="M255.854,280.675c0,0,5.108,1.653,3.561,7.252c-1.547,5.596-4.507-2.821-4.507-2.821L255.854,280.675z"/>
	</g>
	<g opacity="0.15">
		<g>
			<polyline fill="#62B195" points="131.808,109.349 136.804,90.626 144.473,87.181 			"/>
			<polyline fill="#62B195" points="167.678,93.367 144.473,87.181 136.773,90.732 			"/>
		</g>
		<path fill="#62B195" d="M136.811,90.571c0,0,1.653-5.11,7.249-3.559c5.596,1.552-2.825,4.508-2.825,4.508L136.811,90.571z"/>
	</g>
	<g opacity="0.15">
		<g>
			<polyline fill="#62B195" points="41.16,164.04 46.156,145.318 53.826,141.876 			"/>
			<polyline fill="#62B195" points="77.022,148.058 53.826,141.876 46.126,145.427 			"/>
		</g>
		<path fill="#62B195" d="M46.163,145.267c0,0,1.653-5.11,7.25-3.559s-2.825,4.503-2.825,4.503L46.163,145.267z"/>
	</g>
</g>
</svg>
